<svg height="512" width="512" xmlns="http://www.w3.org/2000/svg"><circle cx="256" cy="256" fill="#6c53a2" r="256"/><path d="M446.73 426.75c-4.03 4.51-8.22 8.87-12.56 13.08-2.82 2.73-5.71 5.4-8.66 8.01L318.57 287.85l24.41-16.31 6.47 9.68 23.84 35.67 50.36 75.33z" fill="#c4983d"/><path d="M446.73 426.75c-4.03 4.51-8.22 8.87-12.56 13.08l-25.24-37.77-50.36-75.33c-.01-.02-.02-.03-.03-.05l-16.43-24.58c-4.07-6.09-2.43-14.34 3.66-18.42l3.68-2.46h.01l74.19 111z" fill="#daab42"/><path d="M421.209 404.502a8.855 8.855 0 0 1-12.282-2.441l-50.355-75.333a8.855 8.855 0 0 1 14.723-9.841l50.355 75.333a8.855 8.855 0 0 1-2.441 12.282z" fill="#f9c744"/><path d="M472.329 211.655 423.1 229.091a300.3 300.3 0 0 0-66.546 33.373L305 296.924a300.321 300.321 0 0 0-56.282 48.729l-34.934 38.821c-2.992 3.336-8.149.458-7.499-3.489.068-.373.178-.754.35-1.14l20.378-46.076a130.198 130.198 0 0 1 46.727-55.589l77.447-51.768a130.199 130.199 0 0 1 69.231-21.921l50.367-1.212c.422-.011.817.033 1.187.113 3.896.909 4.584 6.774.357 8.263z" fill="#9175a7"/><path d="M471.972 203.392c-.175 1.471-1.082 2.853-2.841 3.478l-46.369 12.824a135.51 135.51 0 0 0-10.693 3.43c-21.527 7.906-42.648 17.371-61.69 30.1l-51.554 34.46c-19.042 12.728-35.864 28.625-51.401 45.494a135.97 135.97 0 0 0-7.258 8.569l-29.58 37.942c-1.25 1.387-2.874 1.697-4.3 1.296.068-.373.178-.754.35-1.14l20.378-46.076a129.451 129.451 0 0 1 17.254-28.471c.247-.315.499-.623.755-.925a129.612 129.612 0 0 1 28.717-26.193l77.447-51.768a129.623 129.623 0 0 1 35.183-16.52c.377-.121.758-.236 1.143-.344a129.439 129.439 0 0 1 32.905-5.057l50.367-1.212c.422-.011.816.034 1.187.113z" fill="#a583bb"/><path d="M386.37 209.893a24.859 24.859 0 0 1-10.879 17.576l-110.069 73.573a24.857 24.857 0 0 1-20.4 3.331 129.612 129.612 0 0 1 28.717-26.193l77.447-51.768a129.61 129.61 0 0 1 35.184-16.519z" fill="#c2aacf"/><path d="m334.643 237.471-44.36 29.651c4.415 6.605 13.349 8.381 19.954 3.966l20.44-13.663c6.606-4.415 8.381-13.349 3.966-19.954z" fill="#9175a7"/><path d="m311.861 224.98 13.333 19.946a7.958 7.958 0 0 1-2.195 11.043l-11.171 7.467a7.957 7.957 0 0 1-11.043-2.195l-13.333-19.946c-.056-.084-.112-.168-.162-.256a14.613 14.613 0 0 1-2.027-10.762 14.628 14.628 0 0 1 6.236-9.344 14.523 14.523 0 0 1 6.031-2.312l.006-.004c5.335-.782 10.878 1.417 14.149 6.116.064.08.12.164.176.247z" fill="#c4983d"/><path d="m311.861 224.98 13.333 19.946a7.958 7.958 0 0 1-2.195 11.043l-8.104 5.417-15.905-23.795c-3.902-5.837-4.219-13.034-1.46-18.97l.006-.004a14.656 14.656 0 0 1 14.325 6.363z" fill="#daab42"/><path d="M311.687 224.733a36.509 36.509 0 0 1-10.501 10.691 36.523 36.523 0 0 1-13.894 5.616 14.613 14.613 0 0 1-2.027-10.762 14.628 14.628 0 0 1 6.236-9.344 14.523 14.523 0 0 1 6.031-2.312l.006-.004c5.334-.783 10.877 1.416 14.149 6.115z" fill="#f9c744"/><path d="M268.6 456.38a112.612 112.612 0 0 0-46.98-28.11l-3.87-1.17-40.49-12.21c-10.07-3.06-18.9-8.96-25.48-16.9-3.3-3.92-6.04-8.36-8.09-13.18l-14.36-33.58a45.39 45.39 0 0 0-41.75-27.54H9.05c7.98 29.19 21 56.31 38.07 80.34 26.02 36.65 61.44 66.15 102.74 84.99 18.28 8.35 37.72 14.6 58.01 18.46A257.01 257.01 0 0 0 256 512c20.99 0 41.39-2.53 60.91-7.29z" fill="#ea792e"/><g fill="#f39e22"><path d="M151.782 397.994H71.464c-19.876 0-36.964-14.136-40.701-33.66l-7.772-40.647h64.585a45.392 45.392 0 0 1 41.757 27.541l14.352 33.579a52.515 52.515 0 0 0 8.097 13.187zM316.91 504.71C297.39 509.47 276.99 512 256 512c-16.45 0-32.54-1.55-48.13-4.52l-38.46-38.46c-15.46-15.46-4.49-41.92 17.39-41.92h30.95l3.87 1.17a112.612 112.612 0 0 1 46.98 28.11zM149.86 489.02c-41.3-18.84-76.72-48.34-102.74-84.99h3.98c25.56 0 50.1 10.16 68.19 28.25l27.98 27.99c8.43 8.43 8.3 20.41 2.59 28.75z"/></g><path d="m170.733 399.189-11.821-39.73c-3.377-11.352 1.839-23.495 12.398-28.86l15.309-7.779c4.995-2.538 10.735 1.74 9.731 7.252l-12.463 68.4c-1.277 7.01-11.122 7.547-13.154.717zM295.055 416.346l27.613-14.569a18.472 18.472 0 0 1 23.141 4.919l7.996 10.166c2.609 3.317.292 8.186-3.928 8.254l-52.36.843c-5.365.086-7.208-7.108-2.462-9.613z" fill="#f39e22"/><path d="m220.082 410.672 24.071-30.614c6.878-8.747 19.023-11.33 28.865-6.139l14.27 7.527c4.656 2.456 4.486 9.18-.287 11.398l-59.235 27.531c-6.071 2.821-11.822-4.441-7.684-9.703z" fill="#ea792e"/><path d="m338.7 157.5-6.86.96v.01c-7.012.834-27.782 4.237-34.78 4.61-12.864.658-25.986-3.06-36.62-10.24h-.01a61.037 61.037 0 0 1-15.23-14.59c-5.923-8.004-9.778-17.615-11.17-27.49-1.239-9.153-3.47-24.42-4.7-33.4-3.837-25.015 9.688-51.16 32.28-62.559a60.196 60.196 0 0 1 14.89-5.38c3.367-.84 15.638-2.318 19.21-2.89l10.1-1.42.17-.03c.007.002.583-.084.59-.08 3.7.74 7.36 1.55 10.99 2.46 6.99 49.507 14.159 100.538 21.14 150.039z" fill="#f39e22"/><path d="m230.516 85.722 63.555-8.988 2.319 16.4-63.555 8.987z" fill="#ea792e"/><path d="m230.515 85.721 63.556-8.987.91 6.438-63.555 8.987z" fill="#dd5e26"/><path d="m297.856 103.609 2.31 16.398-60.768 8.56a60.497 60.497 0 0 1-5.079-16.008z" fill="#ea792e"/><path d="m297.856 103.609.906 6.434-63.005 8.875a58.84 58.84 0 0 1-1.439-6.359z" fill="#dd5e26"/><path d="m317.067 128.131 2.311 16.404-58.952 8.304a60.985 60.985 0 0 1-15.226-14.584z" fill="#ea792e"/><path d="m317.067 128.131.906 6.434-67.867 9.56a60.162 60.162 0 0 1-4.906-5.87z" fill="#dd5e26"/><path d="m331.129 153.384.716 5.081-29.026 4.088c-8.633 1.216-17.09.561-24.975-1.664z" fill="#ea792e"/><path d="m331.129 153.384.716 5.081-29.026 4.088c-8.633 1.216-17.09.561-24.975-1.664z" fill="#dd5e26"/><path d="m290.334 50.207 2.31 16.398-63.543 8.95c-.668-5.582-.393-11.289.465-16.789z" fill="#ea792e"/><path d="m290.334 50.207.906 6.434-62.419 8.792c.027-1.473.556-5.158.745-6.666z" fill="#dd5e26"/><path d="m302.603 21.245 2.311 16.404-72.453 10.205a61.21 61.21 0 0 1 10.61-18.224z" fill="#ea792e"/><path d="m302.603 21.245.906 6.434-65.726 9.258a60.491 60.491 0 0 1 5.288-7.306z" fill="#dd5e26"/><path d="m313.183 6.589.368 2.61-55.964 7.883c6.958-4.315 14.91-7.282 23.543-8.498 9.615-1.329 22.596-3.826 32.053-1.995z" fill="#ea792e"/><path d="M394.31 103.2c-2.868 28.395-26.099 51.691-55.61 54.3-2.643.395-8.46 1.165-11.03 1.55-29.668 4.51-59.218-14.857-67.07-43.63-1.492-4.568-2.158-11.845-2.92-16.66-.557-3.945-1.761-12.539-2.3-16.4-.844-6.308-2.272-14.137-1.71-20.43 1.01-19.597 12.026-38.102 28.77-48.35 7.109-4.446 15.567-7.479 24.12-8.58 3.704.735 7.367 1.551 11 2.46 22.519 5.523 44.191 14.209 64.34 25.59a60.65 60.65 0 0 1 7.44 21.77l4.71 33.4c.71 5.08.78 10.1.26 14.98z" fill="#f9c744"/><path d="M394.31 103.2c-31.965 16.43-70.683 10.77-98.16-11.76h-.01c-16.944-13.592-29.469-32.436-36.26-53.05C268.689 20.394 286.531 7.507 306.56 5c26.421 5.26 51.928 14.811 75.34 28.05a60.65 60.65 0 0 1 7.44 21.77l4.71 33.4c.71 5.08.78 10.1.26 14.98z" fill="#fad98f"/><path d="M341.647 29.879a7.834 7.834 0 0 0-.912 11.041l16.645 19.64a7.834 7.834 0 1 0 11.953-10.129L352.687 30.79a7.832 7.832 0 0 0-11.04-.911z" fill="#faefdc"/><path d="m387.93 87.59-4.3-30.47a55.236 55.236 0 0 0-15.51-31.31 238.67 238.67 0 0 0-9.18-4.27c24.201 17.017 22.36 39.413 26.6 65.81 4.245 28.436-16.004 56.418-45.5 60.41-1.845.27-10.803 1.505-12.81 1.8-14.6 2.03-28.783-1.881-40.16-10.65h-.01c-10.943-8.384-18.376-21.129-20.24-34.84-.532-3.79-1.767-12.556-2.31-16.43-.624-4.965-1.832-11.792-2.22-16.75-2.188-27.405 18.439-53.007 45.89-56.57 8.284-1.036 18.426-3.228 26.65-1.95-3.22-1.04-6.47-2.02-9.75-2.94-1.4.09-2.8.23-4.21.43-1.769.306-11.309 1.549-13.31 1.87-25.193 3.365-45.105 24.365-47.52 49.3-.846 6.49.274 13.995 1.25 20.5 1.235 8.136 2.458 18.6 3.86 26.69 3.356 17.265 15.376 32.308 31.36 39.53 9.336 4.261 19.935 6.025 30.85 4.48l10.39-1.47c31.802-2.746 54.85-32.524 50.18-63.17z" fill="#dd5e26"/><path d="M385.54 87.35c-4.252-26.451-2.392-48.773-26.6-65.81-7.84-3.45-15.88-6.51-24.11-9.17-4.5-.54-9.14-.51-13.84.15-1.587.277-10.988 1.501-12.81 1.8-12.855 1.85-23.935 7.914-32.36 17.26-10.455 11.559-15.395 27.697-13.13 43.16.464 3.208 1.357 9.692 1.82 12.9.548 3.86 1.771 12.627 2.31 16.43 1.864 13.71 9.297 26.457 20.24 34.84h.01c11.379 8.77 25.559 12.679 40.16 10.65l10.15-1.43c30.558-2.692 52.653-31.349 48.16-60.78zm-46.97 54.25c-5.637.628-13.691 2.343-19.31 2.11-15.66-.261-30.185-8.182-38.99-20.9-4.291-6.142-7.118-13.397-8.16-20.87l-.72-5.11c-.548-3.913-1.767-12.563-2.31-16.4-.35-3.019-1.175-7.339-1.17-10.34-.94-21.606 13.904-42.234 34.8-48.09 4.231-1.397 12.025-2.16 16.5-2.86 27.093-4.925 53.128 13.665 56.9 41l3.75 26.63c3.851 25.828-14.545 51.209-41.29 54.83z" fill="#ea792e"/><path d="m362.74 93.81-.93-6.55c-1.145-8.354-9.134-14.014-17.4-12.47 1.438-3.218 4.227-7.34 4.05-11.03.051-1.158-.737-5.785-.88-7.01-.964-7.21-8.084-11.658-15.05-10.03l-1.98-14.04a4.193 4.193 0 0 0-4.73-3.56c-.635.119-4.577.558-5.09.81a4.17 4.17 0 0 0-2.73 4.52c.533 3.731 1.442 10.321 1.97 14.04l-6.87.97-1.98-14.04a4.178 4.178 0 0 0-4.73-3.56l-2.25.32-2.01.28a4.178 4.178 0 0 0-3.56 4.73c.539 3.783 1.435 10.262 1.97 14.04l-16.26 2.29c-2.303.313-3.87 2.452-3.56 4.73l.16 1.11.44 3.15a4.178 4.178 0 0 0 4.73 3.56c1.89-.267 7.338-1.033 9.15-1.29l5.62 39.87c-1.787.251-7.279 1.028-9.15 1.29-2.3.33-3.89 2.44-3.57 4.74.024.187.131.93.16 1.1l.44 3.15c.33 2.3 2.44 3.89 4.74 3.57 3.792-.533 12.397-1.746 16.26-2.29.059.495 1.977 14.081 1.97 14.03a4.203 4.203 0 0 0 4.74 3.57l1.43-.2c.45-.079 3.045-.388 3.43-.53a4.196 4.196 0 0 0 2.96-4.6l-1.98-14.04 6.88-.97 1.97 14.04c.29 2 1.93 3.47 3.88 3.59.535.096 4.505-.572 5.12-.63 2.243-.304 3.892-2.438 3.56-4.73-.006-.031-1.984-14.011-1.98-14.04l8.48-1.19c8.058-1.142 13.719-8.601 12.58-16.7zm-18.45 3.9c-.89.65-1.94 1.09-3.11 1.26l-10.52 1.48-10.18 1.43-2.07-14.72c5.155-.73 15.538-2.196 20.7-2.92 3.75-.53 7.23 2.09 7.76 5.85.659 2.888-.21 5.946-2.58 7.62zm-8.36-33.53c.587 2.465-.434 5.086-2.75 6.14-.935.546-5.499.93-6.6 1.15l-10.18 1.44-1.53-10.9 10.18-1.43 5.14-.72a5.07 5.07 0 0 1 5.74 4.32z" fill="#dd5e26"/><path d="m359.93 99.52-.92-6.55c-1.14-8.08-8.62-13.71-16.7-12.57l-7.01.99c6.614-.903 11.188-7.166 10.23-13.6l-.75-5.33c-.975-7.21-8.083-11.658-15.05-10.03l-1.98-14.04a4.193 4.193 0 0 0-4.73-3.56c-1.275.206-3.603.444-4.87.73.759 5.366 1.797 12.795 2.56 18.14l-10.41 1.47-1.98-14.04c-.314-2.312-2.499-3.875-4.73-3.56-.388.065-4.618.611-4.87.73.761 5.394 1.794 12.762 2.56 18.14-5.239.778-15.181 2.056-20.4 2.92l.44 3.15a4.178 4.178 0 0 0 4.73 3.56c1.891-.267 7.338-1.033 9.15-1.29 1.085 7.701 4.598 32.603 5.61 39.87h.01l.73 5.22c-2.282.364-10.898 1.454-13.29 1.91l.44 3.15c.33 2.3 2.44 3.89 4.74 3.57l6.39-.9 9.87-1.39c.064.5 1.973 14.075 1.97 14.03a4.203 4.203 0 0 0 4.74 3.57l1.43-.2c.439-.078 3.053-.389 3.43-.53l-2.55-18.14c2.226-.316 8.111-1.146 10.41-1.47l1.97 14.04c.319 2.308 2.497 3.888 4.74 3.56.385-.068 4.607-.607 4.86-.73l-2.55-18.14c2.303-.322 9.59-1.354 12.01-1.69 3.89-.55 7.22-2.57 9.49-5.43.44-1.77.55-3.65.28-5.56zm-45.06-37.51 10.18-1.43 5.14-.72c3.423-.442 5.833 2.203 5.89 5.51 1.164 10.57-3.861 10.554-8.76 11.32l-13.72 1.93-2.27-16.11zm23.51 42.67c-6.052.849-14.658 2.06-20.7 2.91-.242-1.699-2.508-17.791-2.81-19.93 2.296-.323 11.252-1.592 13.72-1.94l10.52-1.48c3.75-.53 7.23 2.09 7.76 5.85 1.584 9.66.128 13.621-8.49 14.59z" fill="#ea792e"/><path d="M157.87 48.39c-12.343 38.25-26.332 81.609-38.66 119.82a1427.45 1427.45 0 0 1-9-2.91c-7.528-2.65-22.934-6.549-29.48-10.93-19.204-11.448-28.344-36.041-21.23-57.23.41-1.223 2.338-7.298 2.72-8.43a256.98 256.98 0 0 1 60.2-51.13c4.866.605 14.069 3.991 18.87 5.46 4.461 1.458 12.073 3.889 16.58 5.35z" fill="#f39e22"/><path d="M115.22 93.73c-.711 2.219-1.78 5.5-2.5 7.72.007.017-1.157 3.563-1.15 3.58l-.47 1.46c-14.551-4.693-34.924-11.267-49.47-15.96l.58-1.81c2.76-3.187 5.58-6.312 8.49-9.36 14.076 4.536 30.484 9.842 44.52 14.37z" fill="#ea792e"/><path d="m115.22 93.73-1.61 5.01c-14.461-4.678-32.355-10.444-46.87-15.13 1.31-1.43 2.62-2.85 3.96-4.25 14.076 4.536 30.484 9.842 44.52 14.37z" fill="#dd5e26"/><path d="m108.517 114.508-4.118 12.761-47.291-15.261a48.97 48.97 0 0 1 1.963-13.457z" fill="#ea792e"/><path d="m108.517 114.508-1.616 5.007-49.031-15.823a47.7 47.7 0 0 1 1.201-5.141z" fill="#dd5e26"/><path d="m113.836 139.165-4.119 12.766-45.877-14.805a49.354 49.354 0 0 1-5.931-16.009z" fill="#ea792e"/><path d="m113.836 139.165-1.616 5.007-52.816-17.043a48.658 48.658 0 0 1-1.497-6.011z" fill="#dd5e26"/><path d="m115.146 162.533-1.276 3.954-22.588-7.289a49.07 49.07 0 0 1-17.603-10.046z" fill="#ea792e"/><path d="m115.146 162.533-1.276 3.954-22.588-7.289a49.07 49.07 0 0 1-17.603-10.046z" fill="#dd5e26"/><path d="M121.93 72.95c-.961 2.968-3.144 9.733-4.12 12.76-12.77-4.125-27.738-8.946-40.47-13.06A249.851 249.851 0 0 1 88.7 62.23c9.81 3.161 23.312 7.517 33.23 10.72z" fill="#ea792e"/><path d="m121.93 72.95-1.62 5.01c-10.777-3.473-25.534-8.252-36.19-11.68 1.51-1.37 3.03-2.72 4.58-4.05 9.81 3.161 23.312 7.517 33.23 10.72z" fill="#dd5e26"/><path d="M141.11 56.19c-.994 3.054-3.114 9.654-4.12 12.77-11.285-3.647-29.534-9.528-40.61-13.11 4.285-3.412 8.671-6.714 13.17-9.84 9.279 2.988 22.205 7.159 31.56 10.18z" fill="#ea792e"/><path d="M141.11 56.19c-.043.119-1.522 4.708-1.62 5.01-10.964-3.536-24.352-7.861-35.25-11.38 1.75-1.3 3.52-2.57 5.31-3.81 9.279 2.988 22.205 7.159 31.56 10.18z" fill="#dd5e26"/><path d="m154 49.26-.65 2.03c-7.327-2.362-27.856-8.981-34.87-11.25 1.3-.83 2.62-1.66 3.94-2.46 4.875.607 14.062 3.99 18.87 5.46 4.498 1.452 8.877 3.593 12.71 6.22z" fill="#ea792e"/><path d="M192.411 111.334c-2.945 8.094-8.632 30.105-13.494 36.99-11.684 18.723-34.99 27.863-56.953 20.776l-11.346-3.661c-25.915-8.363-40.141-36.146-31.78-62.057l8.387-25.991c8.214-25.649 35.971-40.21 62.059-31.775l11.346 3.661c25.916 8.362 40.143 36.146 31.781 62.057z" fill="#f9c744"/><path d="M192.411 111.334c-2.952 8.131-8.628 30.085-13.494 36.99-48.233.994-82.112-45.683-74.992-94.75 12.436-9.63 29.26-13.153 45.36-7.958l11.346 3.661c25.915 8.362 40.142 36.146 31.78 62.057z" fill="#fad98f"/><path d="M166.495 76.293a6.343 6.343 0 0 0-4.569 7.72l5.177 20.194c2.362 8.057 14.093 5.059 12.289-3.15l-5.177-20.194a6.344 6.344 0 0 0-7.72-4.57z" fill="#faefdc"/><path d="M158.44 54.36c-1.398-.413-8.778-2.861-10.35-3.34-15.884-5.143-33.054-1.008-44.88 10.27-5.401 5.118-9.454 11.599-11.75 18.72l-1.77 5.48a7581.027 7581.027 0 0 1-5.88 18.24c-7.762 23.015 5.549 49.378 29 56.63l8.09 2.61c24.127 9.232 51.469-4.296 58.89-28.27l7.65-23.71c7.63-23.65-5.35-49-29-56.63zm27.06 56.49c-2.586 7.109-7.57 26.443-11.85 32.49-10.533 17.093-32.465 24.94-52.09 17.58l-7.9-2.55c-19.531-6.068-32.269-26.176-29.72-46.27.397-4.276 2.099-9.16 3.43-13.27 2.133-6.386 4.511-14.469 6.81-20.75 8.043-20.636 32.287-32.125 53.44-24.95l7.9 2.54c23.8 6.504 37.655 31.647 29.98 55.18z" fill="#dd5e26"/><path d="M157.59 56.34c-1.263-.372-8.529-2.776-9.97-3.21-15.777-5.175-33.205-.605-44.53 11.2-4.528 4.724-7.97 10.423-9.98 16.71l-1.62 5.03c-1.667 5.158-4.08 12.629-5.74 17.79-7.485 22.205 5.365 47.546 27.91 54.51l7.9 2.55c23.218 8.843 49.432-4.216 56.58-27.24l7.36-22.83c7.35-22.76-5.15-47.16-27.91-54.51zm23.31 54.19c-2.35 6.452-6.886 23.996-10.76 29.49-9.298 14.909-27.907 22.219-45.41 16.56-4.32-1.543-10.799-3.136-14.8-5.3-13.963-7.003-22.537-22.217-21.39-37.69.194-4.459 1.669-9.145 3.09-13.38 1.595-4.825 3.847-11.952 5.41-16.74 6.294-20.366 29.219-32.143 49.47-25.34l7.44 2.4c21.476 5.997 33.86 28.748 26.95 50z" fill="#ea792e"/><path d="m154.433 117.692-1.607.356-17.909 3.936a7.563 7.563 0 0 1-7.27-2.346l-13.322-14.888a6.752 6.752 0 0 1 .547-9.553l27.703-24.572 2.231-1.98c2.083-1.845 5.382-.78 5.993 1.934l8.768 39.042a6.75 6.75 0 0 1-5.134 8.071z" fill="#dd5e26"/><path d="M154.844 125.211c-3.158 2.373-25.2 19.058-28.877 21.828-2.051 1.555-4.994.523-5.699-1.839l-8.768-28.42-1.903-6.17c-.371-1.204 1.163-2.059 1.992-1.11l14.053 16.099a7.574 7.574 0 0 0 7.423 2.395l20.812-4.848c1.227-.286 1.972 1.304.967 2.065z" fill="#dd5e26"/><g fill="#ea792e"><path d="m152.827 118.048-17.909 3.936a7.563 7.563 0 0 1-7.27-2.346l-13.322-14.888a6.752 6.752 0 0 1 .547-9.553l27.703-24.572a3.639 3.639 0 0 1 2.743 2.761l8.768 39.042a6.726 6.726 0 0 1-1.26 5.62zM131.326 133.382a7.573 7.573 0 0 1-7.423-2.395L111.5 116.779l8.768 28.42a3.65 3.65 0 0 0 1.031 1.628l17.409-13.16c.879-.664.226-2.057-.847-1.807z"/></g><path d="m143.283 199.439-21.227 11.985c-12.238 6.909-19.558 19.17-20.678 32.189a40.772 40.772 0 0 0 5.146 23.611l11.155 19.757c11.12 19.696 36.102 26.648 55.801 15.526l21.227-11.985z" fill="#f39e22"/><path d="m109.477 272.264 37.614-21.247 5.483 9.706-37.614 21.247z" fill="#ea792e"/><path d="m109.477 272.264 37.614-21.247 2.152 3.81-37.614 21.247z" fill="#dd5e26"/><path d="m155.886 266.816 5.477 9.701-35.948 20.296a39.911 39.911 0 0 1-4.651-5.148 39.406 39.406 0 0 1-2.464-3.628z" fill="#ea792e"/><path d="m155.886 266.816 2.149 3.806-37.271 21.043a39.406 39.406 0 0 1-2.464-3.628z" fill="#dd5e26"/><path d="m173.943 277.45 5.479 9.704-34.874 19.689a40.812 40.812 0 0 1-8.604-2.92 40.446 40.446 0 0 1-4.515-2.47z" fill="#ea792e"/><path d="m173.943 277.45 2.149 3.806-40.148 22.667a40.446 40.446 0 0 1-4.515-2.47z" fill="#dd5e26"/><path d="m188.955 289.807 1.697 3.006-17.171 9.694a40.775 40.775 0 0 1-16.048 5.097z" fill="#ea792e"/><path d="m188.955 289.807 1.697 3.006-17.171 9.694a40.775 40.775 0 0 1-16.048 5.097z" fill="#dd5e26"/><path d="m138.05 235.225 5.477 9.701-37.59 21.223a40.792 40.792 0 0 1-3.093-7.664l-.742-2.963z" fill="#ea792e"/><path d="m138.05 235.225 2.149 3.806-36.925 20.847a32.059 32.059 0 0 1-.43-1.394l-.742-2.963z" fill="#dd5e26"/><path d="m138.615 214.074 5.479 9.704-42.86 24.198a40.166 40.166 0 0 1 .145-4.365c.111-1.268.279-2.53.505-3.779a40.723 40.723 0 0 1 1.515-5.875z" fill="#ea792e"/><path d="m138.615 214.074 2.149 3.806-38.881 21.952a40.723 40.723 0 0 1 1.515-5.875z" fill="#dd5e26"/><path d="m141.637 202.296.872 1.544-33.106 18.691a40.762 40.762 0 0 1 12.654-11.108l8.623-4.868a40.896 40.896 0 0 1 10.957-4.259z" fill="#ea792e"/><path d="m201.182 213.781 11.155 19.757a40.942 40.942 0 0 1 3.843 9.313c4.859 17.679-2.68 37.061-19.375 46.487l-8.625 4.869c-19.699 11.122-44.681 4.17-55.801-15.526l-11.155-19.757a40.764 40.764 0 0 1-5.146-23.611c1.119-13.018 8.44-25.279 20.678-32.189l8.625-4.869c19.699-11.122 44.68-4.17 55.801 15.526z" fill="#f9c744"/><path d="m201.182 213.781 11.155 19.757a40.942 40.942 0 0 1 3.843 9.313 58.988 58.988 0 0 1-15.08 12.158c-27.663 15.618-63.184 6.601-85.021-19.696 1.119-13.018 8.44-25.279 20.678-32.189l8.625-4.869c19.698-11.122 44.679-4.17 55.8 15.526z" fill="#fad98f"/><path d="M165.185 209.884a5.27 5.27 0 0 0 2.143 7.138l15.25 8.208a5.27 5.27 0 0 0 4.995-9.281l-15.25-8.208a5.27 5.27 0 0 0-7.138 2.143z" fill="#faefdc"/><path d="M212.61 246.51c-.19-1.13-.44-2.25-.75-3.36-.8-2.91-1.96-5.76-3.51-8.5l-10.18-18.03c-10.15-17.97-32.94-24.32-50.92-14.17l-1.72.97-6.15 3.48a37.185 37.185 0 0 0-14.63 15c-1.11 2.1-2.02 4.29-2.72 6.55-.78 2.54-1.29 5.16-1.52 7.82-.02.28-.05.57-.05.85-.07.99-.1 1.98-.08 2.97a36.636 36.636 0 0 0 1.36 9.36c.6 2.17 1.41 4.31 2.44 6.4.32.66.66 1.31 1.03 1.96l2.35 4.17 2.15 3.8 3.33 5.9 2.35 4.16c.37.65.75 1.28 1.15 1.9.8 1.25 1.67 2.43 2.59 3.55 1.51 1.84 3.18 3.5 4.97 4.97 2.03 1.69 4.23 3.14 6.54 4.34 1.63.85 3.32 1.58 5.05 2.17 3.28 1.15 6.72 1.83 10.2 2.02 6.89.38 13.96-1.14 20.42-4.78l6.15-3.47 1.72-.97c14.18-8.01 21.12-23.89 18.43-39.06zm-19.46 37.58-1.57.89-6 3.39a35.78 35.78 0 0 1-16.52 4.63c-3.81.13-7.61-.36-11.24-1.43-1.82-.52-3.6-1.2-5.32-2.02-2.4-1.12-4.68-2.52-6.8-4.19a34.731 34.731 0 0 1-5.12-4.89c-.95-1.1-1.84-2.28-2.66-3.51-.47-.72-.93-1.47-1.36-2.23l-2.16-3.82-3.32-5.9-2.15-3.81-2.16-3.82a35.547 35.547 0 0 1-3.53-8.78c-.39-1.49-.67-3.01-.86-4.52v-.01c-.09-.74-.16-1.46-.2-2.2-.11-1.75-.09-3.5.06-5.23.02-.19.03-.37.06-.56.31-3.07 1.01-6.07 2.08-8.95v-.01c.92-2.45 2.1-4.79 3.53-7v-.01c3.06-4.72 7.27-8.79 12.5-11.74l6-3.39 1.57-.89c17.31-9.77 39.25-3.66 49.02 13.64l9.8 17.35a36.69 36.69 0 0 1 3.37 8.18c.42 1.54.74 3.07.95 4.62v.01c1.93 14.18-4.75 28.75-17.97 36.2z" fill="#dd5e26"/><path d="M211.12 247.89v-.01a35.74 35.74 0 0 0-.95-4.62 36.69 36.69 0 0 0-3.37-8.18l-9.8-17.35c-9.77-17.3-31.71-23.41-49.02-13.64l-1.57.89-6 3.39a35.826 35.826 0 0 0-12.5 11.74v.01a36.466 36.466 0 0 0-3.53 7v.01a36.076 36.076 0 0 0-2.08 8.95c-.03.19-.04.37-.06.56-.15 1.73-.17 3.48-.06 5.23.04.74.11 1.46.2 2.2v.01c.19 1.51.47 3.03.86 4.52a35.547 35.547 0 0 0 3.53 8.78l2.16 3.82 2.15 3.81 3.32 5.9 2.16 3.82c.43.76.89 1.51 1.36 2.23.82 1.23 1.71 2.41 2.66 3.51 1.56 1.82 3.27 3.46 5.12 4.89 2.12 1.67 4.4 3.07 6.8 4.19 1.72.82 3.5 1.5 5.32 2.02 3.63 1.07 7.43 1.56 11.24 1.43a35.78 35.78 0 0 0 16.52-4.63l6-3.39 1.57-.89c13.22-7.45 19.9-22.02 17.97-36.2zm-20.4 32.71-1.22.69-5.66 3.19c-1.53.87-3.1 1.59-4.7 2.18a32.418 32.418 0 0 1-15.72 1.75c-2.13-.29-4.23-.79-6.26-1.49-2.66-.91-5.21-2.17-7.57-3.76a31.283 31.283 0 0 1-5.52-4.66 32.231 32.231 0 0 1-2.82-3.42c-.68-.95-1.31-1.94-1.9-2.98l-1.71-3.02-3.32-5.89-2.15-3.81-1.71-3.03c-.58-1.04-1.11-2.09-1.56-3.16-.94-2.16-1.62-4.38-2.06-6.62-.04-.21-.08-.43-.11-.64-.24-1.35-.39-2.71-.45-4.06-.08-1.45-.05-2.9.08-4.34a32.679 32.679 0 0 1 4.59-14.11c2.02-3.37 4.68-6.4 7.91-8.9 1.24-.97 2.57-1.85 3.98-2.65l5.65-3.2 1.23-.69c15.7-8.86 35.62-3.32 44.49 12.38l8.89 15.75c1.35 2.4 2.37 4.89 3.06 7.43.67 2.46 1.05 4.95 1.14 7.44.42 11.79-5.59 23.41-16.58 29.62z" fill="#ea792e"/><path d="m188.386 227.83 2.526 10.98c.776 3.368.282 7.087-1.143 10.347-1.366 3.115-3.576 5.808-6.339 7.368l-27.987 15.801a2.014 2.014 0 0 1-2.952-1.3l-.15-.655-.51-2.213a2.013 2.013 0 0 1 .971-2.202l25.145-14.196a10.834 10.834 0 0 0 4.153-4.177 10.87 10.87 0 0 0 1.102-7.74l-2.22-9.636a2.595 2.595 0 0 0-3.803-1.68l-28.16 15.899a2.012 2.012 0 0 1-2.949-1.301l-.15-.655-.508-2.21a2.016 2.016 0 0 1 .97-2.205l29.026-16.388c5.649-3.19 11.459-.429 12.978 6.163z" fill="#dd5e26"/><path d="m187.014 232.759 2.526 10.98c.402 1.751.463 3.594.229 5.417-1.366 3.115-3.576 5.808-6.339 7.368l-27.987 15.801a2.014 2.014 0 0 1-2.952-1.3l-.15-.655 24.234-13.682a10.882 10.882 0 0 0 5.524-9.106 10.87 10.87 0 0 0 1.102-7.74l-2.22-9.636a2.595 2.595 0 0 0-3.803-1.68l-28.16 15.899a2.012 2.012 0 0 1-2.949-1.301l-.15-.655 28.116-15.874c5.651-3.189 11.46-.428 12.979 6.164z" fill="#ea792e"/><path d="m164.074 245.678 1.079 4.185a2.296 2.296 0 0 1-1.093 2.574l-18.951 10.699a2.298 2.298 0 0 1-3.368-1.484l-.516-2.239-.461-2.008a2.302 2.302 0 0 1 1.111-2.514l18.847-10.641a2.296 2.296 0 0 1 3.352 1.428z" fill="#dd5e26"/><path d="m162.702 250.607.586 2.266-18.179 10.264a2.298 2.298 0 0 1-3.368-1.484l-.516-2.239 18.125-10.233a2.295 2.295 0 0 1 3.352 1.426z" fill="#ea792e"/></svg>